{
  "accessors": [
    {
      "bufferView": 2,
      "componentType": 5126,
      "count": 2815,
      "max": [
        1.7583999633789062,
        3.5690000057220459,
        8.6515998840332031
      ],
      "min": [
        -2.0438001155853271,
        -5.8593997955322266,
        2.2704999446868896
      ],
      "type": "VEC3"
    },
    {
      "bufferView": 2,
      "byteOffset": 33780,
      "componentType": 5126,
      "count": 2815,
      "max": [
        1,
        0.9999961256980896,
        0.99977952241897583
      ],
      "min": [
        -1,
        -0.9999961256980896,
        -0.99977952241897583
      ],
      "type": "VEC3"
    },
    {
      "bufferView": 3,
      "componentType": 5126,
      "count": 2815,
      "max": [
        1,
        0.99977952241897583,
        1,
        1
      ],
      "min": [
        -1,
        -0.99978375434875488,
        -1,
        -1
      ],
      "type": "VEC4"
    },
    {
      "bufferView": 1,
      "componentType": 5126,
      "count": 2815,
      "max": [
        0.89426702260971069,
        0.8967670202255249
      ],
      "min": [
        0.004999999888241291,
        0.004999999888241291
      ],
      "type": "VEC2"
    },
    {
      "bufferView": 0,
      "componentType": 5125,
      "count": 5634,
      "max": [
        2814
      ],
      "min": [
        0
      ],
      "type": "SCALAR"
    },
    {
      "bufferView": 2,
      "byteOffset": 67560,
      "componentType": 5126,
      "count": 2855,
      "max": [
        1.6643999814987183,
        -0.81739997863769531,
        8.6515998840332031
      ],
      "min": [
        -1.6184999942779541,
        -5.8593997955322266,
        4.3661999702453613
      ],
      "type": "VEC3"
    },
    {
      "bufferView": 2,
      "byteOffset": 101820,
      "componentType": 5126,
      "count": 2855,
      "max": [
        1,
        0.88941025733947754,
        0.91132938861846924
      ],
      "min": [
        -1,
        -0.76606088876724243,
        -0.75442087650299072
      ],
      "type": "VEC3"
    },
    {
      "bufferView": 3,
      "byteOffset": 45040,
      "componentType": 5126,
      "count": 2855,
      "max": [
        1,
        0.77357929944992065,
        1,
        1
      ],
      "min": [
        -1,
        -0.99964481592178345,
        -1,
        -1
      ],
      "type": "VEC4"
    },
    {
      "bufferView": 1,
      "byteOffset": 22520,
      "componentType": 5126,
      "count": 2855,
      "max": [
        0.86634397506713867,
        0.86980700492858887
      ],
      "min": [
        0.004999999888241291,
        0.004999999888241291
      ],
      "type": "VEC2"
    },
    {
      "bufferView": 0,
      "byteOffset": 22536,
      "componentType": 5125,
      "count": 6516,
      "max": [
        2854
      ],
      "min": [
        0
      ],
      "type": "SCALAR"
    },
    {
      "bufferView": 2,
      "byteOffset": 136080,
      "componentType": 5126,
      "count": 10057,
      "max": [
        2.0625,
        2.3859000205993652,
        5.4128999710083008
      ],
      "min": [
        -1.9513000249862671,
        -4.2000999450683594,
        3.3475000858306885
      ],
      "type": "VEC3"
    },
    {
      "bufferView": 2,
      "byteOffset": 256764,
      "componentType": 5126,
      "count": 10057,
      "max": [
        1,
        1,
        1
      ],
      "min": [
        -1,
        -1,
        -1
      ],
      "type": "VEC3"
    },
    {
      "bufferView": 3,
      "byteOffset": 90720,
      "componentType": 5126,
      "count": 10057,
      "max": [
        1,
        1,
        1,
        1
      ],
      "min": [
        -1,
        -1,
        -1,
        -1
      ],
      "type": "VEC4"
    },
    {
      "bufferView": 1,
      "byteOffset": 45360,
      "componentType": 5126,
      "count": 10057,
      "max": [
        0.84025198221206665,
        0.89323198795318604
      ],
      "min": [
        0.004999999888241291,
        0.004999999888241291
      ],
      "type": "VEC2"
    },
    {
      "bufferView": 0,
      "byteOffset": 48600,
      "componentType": 5125,
      "count": 20604,
      "max": [
        10056
      ],
      "min": [
        0
      ],
      "type": "SCALAR"
    },
    {
      "bufferView": 2,
      "byteOffset": 377448,
      "componentType": 5126,
      "count": 11970,
      "max": [
        2.0352001190185547,
        4.0525999069213867,
        3.4119999408721924
      ],
      "min": [
        -2.3749001026153564,
        -7.5701999664306641,
        0.54930001497268677
      ],
      "type": "VEC3"
    },
    {
      "bufferView": 2,
      "byteOffset": 521088,
      "componentType": 5126,
      "count": 11970,
      "max": [
        1,
        1,
        1
      ],
      "min": [
        -1,
        -1,
        -1
      ],
      "type": "VEC3"
    },
    {
      "bufferView": 3,
      "byteOffset": 251632,
      "componentType": 5126,
      "count": 11970,
      "max": [
        1,
        1,
        1,
        1
      ],
      "min": [
        -1,
        -1,
        -1,
        -1
      ],
      "type": "VEC4"
    },
    {
      "bufferView": 1,
      "byteOffset": 125816,
      "componentType": 5126,
      "count": 11970,
      "max": [
        0.90348100662231445,
        0.89705497026443481
      ],
      "min": [
        0.004999999888241291,
        0.004999999888241291
      ],
      "type": "VEC2"
    },
    {
      "bufferView": 0,
      "byteOffset": 131016,
      "componentType": 5125,
      "count": 25539,
      "max": [
        11969
      ],
      "min": [
        0
      ],
      "type": "SCALAR"
    },
    {
      "bufferView": 2,
      "byteOffset": 664728,
      "componentType": 5126,
      "count": 14512,
      "max": [
        1.711400032043457,
        2.4200000762939453,
        1.5441000461578369
      ],
      "min": [
        -2.0583000183105469,
        0.89139997959136963,
        0.015599999576807022
      ],
      "type": "VEC3"
    },
    {
      "bufferView": 2,
      "byteOffset": 838872,
      "componentType": 5126,
      "count": 14512,
      "max": [
        1,
        1,
        1
      ],
      "min": [
        -1,
        -1,
        -1
      ],
      "type": "VEC3"
    },
    {
      "bufferView": 3,
      "byteOffset": 443152,
      "componentType": 5126,
      "count": 14512,
      "max": [
        1,
        1,
        1,
        1
      ],
      "min": [
        -1,
        -1,
        -1,
        -1
      ],
      "type": "VEC4"
    },
    {
      "bufferView": 1,
      "byteOffset": 221576,
      "componentType": 5126,
      "count": 14512,
      "max": [
        0.99355500936508179,
        0.99500000476837158
      ],
      "min": [
        0.004999999888241291,
        0.004999999888241291
      ],
      "type": "VEC2"
    },
    {
      "bufferView": 0,
      "byteOffset": 233172,
      "componentType": 5125,
      "count": 29196,
      "max": [
        14511
      ],
      "min": [
        0
      ],
      "type": "SCALAR"
    },
    {
      "bufferView": 2,
      "byteOffset": 1013016,
      "componentType": 5126,
      "count": 14460,
      "max": [
        1.711400032043457,
        -3.136699914932251,
        1.5441000461578369
      ],
      "min": [
        -2.0583000183105469,
        -4.6652002334594727,
        0.015599999576807022
      ],
      "type": "VEC3"
    },
    {
      "bufferView": 2,
      "byteOffset": 1186536,
      "componentType": 5126,
      "count": 14460,
      "max": [
        1,
        1,
        1
      ],
      "min": [
        -1,
        -1,
        -1
      ],
      "type": "VEC3"
    },
    {
      "bufferView": 3,
      "byteOffset": 675344,
      "componentType": 5126,
      "count": 14460,
      "max": [
        1,
        1,
        1,
        1
      ],
      "min": [
        -1,
        -1,
        -1,
        -1
      ],
      "type": "VEC4"
    },
    {
      "bufferView": 1,
      "byteOffset": 337672,
      "componentType": 5126,
      "count": 14460,
      "max": [
        0.9743800163269043,
        0.98344600200653076
      ],
      "min": [
        0.004999999888241291,
        0.004999999888241291
      ],
      "type": "VEC2"
    },
    {
      "bufferView": 0,
      "byteOffset": 349956,
      "componentType": 5125,
      "count": 29196,
      "max": [
        14459
      ],
      "min": [
        0
      ],
      "type": "SCALAR"
    },
    {
      "bufferView": 2,
      "byteOffset": 1360056,
      "componentType": 5126,
      "count": 14495,
      "max": [
        1.711400032043457,
        -4.9387998580932617,
        1.5441000461578369
      ],
      "min": [
        -2.0583000183105469,
        -6.467400074005127,
        0.015599999576807022
      ],
      "type": "VEC3"
    },
    {
      "bufferView": 2,
      "byteOffset": 1533996,
      "componentType": 5126,
      "count": 14495,
      "max": [
        1,
        1,
        1
      ],
      "min": [
        -1,
        -1,
        -1
      ],
      "type": "VEC3"
    },
    {
      "bufferView": 3,
      "byteOffset": 906704,
      "componentType": 5126,
      "count": 14495,
      "max": [
        1,
        1,
        1,
        1
      ],
      "min": [
        -1,
        -1,
        -1,
        -1
      ],
      "type": "VEC4"
    },
    {
      "bufferView": 1,
      "byteOffset": 453352,
      "componentType": 5126,
      "count": 14495,
      "max": [
        0.98440700769424438,
        0.99211198091506958
      ],
      "min": [
        0.004999999888241291,
        0.004999999888241291
      ],
      "type": "VEC2"
    },
    {
      "bufferView": 0,
      "byteOffset": 466740,
      "componentType": 5125,
      "count": 29196,
      "max": [
        14494
      ],
      "min": [
        0
      ],
      "type": "SCALAR"
    }
  ],
  "asset": {
    "extras": {
      "author": "azlan (https://sketchfab.com/azlan)",
      "license": "CC-BY-4.0 (http://creativecommons.org/licenses/by/4.0/)",
      "source": "https://sketchfab.com/models/7663f9fca2ce485da8c0fafcf2d40d10",
      "title": "BUK Missile System"
    },
    "generator": "Sketchfab-3.20.7",
    "version": "2.0"
  },
  "bufferViews": [
    {
      "buffer": 0,
      "byteLength": 583524,
      "byteOffset": 0,
      "name": "floatBufferViews",
      "target": 34963
    },
    {
      "buffer": 0,
      "byteLength": 569312,
      "byteOffset": 583524,
      "byteStride": 8,
      "name": "floatBufferViews",
      "target": 34962
    },
    {
      "buffer": 0,
      "byteLength": 1707936,
      "byteOffset": 1152836,
      "byteStride": 12,
      "name": "floatBufferViews",
      "target": 34962
    },
    {
      "buffer": 0,
      "byteLength": 1138624,
      "byteOffset": 2860772,
      "byteStride": 16,
      "name": "floatBufferViews",
      "target": 34962
    }
  ],
  "buffers": [
    {
      "byteLength": 3999396,
      "uri": "scene.bin"
    }
  ],
  "images": [
    {
      "uri": "textures/Scene_-_Root_baseColor.png"
    },
    {
      "uri": "textures/Scene_-_Root_normal.png"
    },
    {
      "uri": "textures/Scene_-_Root_metallicRoughness.png"
    }
  ],
  "materials": [
    {
      "doubleSided": true,
      "name": "Scene_-_Root",
      "normalTexture": {
        "index": 1,
        "scale": 1,
        "texCoord": 0
      },
      "occlusionTexture": {
        "index": 2,
        "strength": 1,
        "texCoord": 0
      },
      "pbrMetallicRoughness": {
        "baseColorFactor": [
          1,
          1,
          1,
          1
        ],
        "baseColorTexture": {
          "index": 0,
          "texCoord": 0
        },
        "metallicFactor": 1,
        "metallicRoughnessTexture": {
          "index": 2,
          "texCoord": 0
        },
        "roughnessFactor": 0.11771483989999998
      }
    }
  ],
  "meshes": [
    {
      "primitives": [
        {
          "attributes": {
            "NORMAL": 1,
            "POSITION": 0,
            "TANGENT": 2,
            "TEXCOORD_0": 3
          },
          "indices": 4,
          "material": 0,
          "mode": 4
        }
      ]
    },
    {
      "primitives": [
        {
          "attributes": {
            "NORMAL": 6,
            "POSITION": 5,
            "TANGENT": 7,
            "TEXCOORD_0": 8
          },
          "indices": 9,
          "material": 0,
          "mode": 4
        }
      ]
    },
    {
      "primitives": [
        {
          "attributes": {
            "NORMAL": 11,
            "POSITION": 10,
            "TANGENT": 12,
            "TEXCOORD_0": 13
          },
          "indices": 14,
          "material": 0,
          "mode": 4
        }
      ]
    },
    {
      "primitives": [
        {
          "attributes": {
            "NORMAL": 16,
            "POSITION": 15,
            "TANGENT": 17,
            "TEXCOORD_0": 18
          },
          "indices": 19,
          "material": 0,
          "mode": 4
        }
      ]
    },
    {
      "primitives": [
        {
          "attributes": {
            "NORMAL": 21,
            "POSITION": 20,
            "TANGENT": 22,
            "TEXCOORD_0": 23
          },
          "indices": 24,
          "material": 0,
          "mode": 4
        }
      ]
    },
    {
      "primitives": [
        {
          "attributes": {
            "NORMAL": 26,
            "POSITION": 25,
            "TANGENT": 27,
            "TEXCOORD_0": 28
          },
          "indices": 29,
          "material": 0,
          "mode": 4
        }
      ]
    },
    {
      "primitives": [
        {
          "attributes": {
            "NORMAL": 31,
            "POSITION": 30,
            "TANGENT": 32,
            "TEXCOORD_0": 33
          },
          "indices": 34,
          "material": 0,
          "mode": 4
        }
      ]
    }
  ],
  "nodes": [
    {
      "children": [
        1
      ],
      "name": "RootNode (gltf orientation matrix)",
      "rotation": [
        -0.70710678118654746,
        -0,
        -0,
        0.70710678118654757
      ]
    },
    {
      "children": [
        2
      ],
      "name": "RootNode (model correction matrix)"
    },
    {
      "children": [
        3,
        4,
        5,
        6,
        7,
        8,
        9
      ],
      "name": "buk_tex.obj.cleaner.materialmerger.gles"
    },
    {
      "mesh": 0,
      "name": ""
    },
    {
      "mesh": 1,
      "name": ""
    },
    {
      "mesh": 2,
      "name": ""
    },
    {
      "mesh": 3,
      "name": ""
    },
    {
      "mesh": 4,
      "name": ""
    },
    {
      "mesh": 5,
      "name": ""
    },
    {
      "mesh": 6,
      "name": ""
    }
  ],
  "samplers": [
    {
      "magFilter": 9729,
      "minFilter": 9987,
      "wrapS": 10497,
      "wrapT": 10497
    }
  ],
  "scene": 0,
  "scenes": [
    {
      "name": "OSG_Scene",
      "nodes": [
        0
      ]
    }
  ],
  "textures": [
    {
      "sampler": 0,
      "source": 0
    },
    {
      "sampler": 0,
      "source": 1
    },
    {
      "sampler": 0,
      "source": 2
    }
  ]
}

